<?xml version="1.0" standalone="no"?>
<!DOCTYPE svg PUBLIC "-//W3C//DTD SVG 20010904//EN"
 "http://www.w3.org/TR/2001/REC-SVG-20010904/DTD/svg10.dtd">
<svg version="1.0" xmlns="http://www.w3.org/2000/svg"
 width="512.000000pt" height="512.000000pt" viewBox="0 0 512.000000 512.000000"
 preserveAspectRatio="xMidYMid meet">
<metadata>
Created by potrace 1.14, written by Peter Selinger 2001-2017
</metadata>
<g transform="translate(0.000000,512.000000) scale(0.100000,-0.100000)"
fill="#000000" stroke="none">
<path d="M4190 4876 c-194 -200 -687 -712 -970 -1009 l-65 -68 -85 40 c-380
176 -770 174 -1123 -6 -206 -105 -365 -245 -494 -434 -176 -259 -244 -480
-244 -790 0 -386 130 -714 388 -975 93 -94 220 -192 306 -236 l59 -29 -58 -62
c-138 -148 -682 -707 -968 -995 l-310 -312 132 0 131 0 64 60 c35 33 68 56 72
52 5 -4 5 -2 2 4 -3 6 23 39 58 74 36 34 65 67 65 72 0 5 4 7 9 4 5 -3 21 12
36 34 15 22 46 59 69 83 51 52 236 252 268 289 131 153 172 199 228 256 36 37
64 71 62 75 -1 4 5 10 14 14 9 3 39 27 66 52 63 58 132 92 170 84 17 -3 28 -1
28 6 0 6 5 11 11 11 5 0 8 -4 5 -8 -3 -5 8 -8 24 -7 17 1 30 -1 30 -5 0 -4 19
-7 43 -8 23 -1 80 -4 127 -7 47 -4 113 -7 148 -8 34 0 62 -5 62 -10 0 -5 6 -4
14 2 7 6 27 11 42 11 29 0 54 0 77 0 45 1 90 10 102 20 8 6 19 9 24 6 5 -4 13
-2 16 4 4 6 15 8 25 5 10 -3 21 -1 25 5 4 6 15 8 24 5 10 -3 25 3 35 13 10 12
25 17 39 15 14 -3 29 2 36 11 8 9 19 16 25 16 7 0 31 9 54 20 22 11 47 20 55
20 8 0 22 9 32 20 9 10 20 19 24 18 14 -3 61 22 61 33 0 6 6 9 12 7 7 -3 22 4
33 15 11 10 38 33 60 50 81 65 203 199 198 218 -2 5 2 8 8 6 6 -1 13 5 14 14
3 19 50 96 77 125 11 12 20 28 22 35 1 8 6 21 11 29 19 29 35 62 35 72 0 6 11
23 24 38 13 16 27 49 31 77 4 26 14 61 22 76 8 16 12 31 9 34 -3 3 -1 14 4 24
6 10 15 51 20 91 6 40 13 89 16 108 17 115 22 309 10 405 -20 155 -53 289 -91
370 -18 39 -39 86 -46 105 -7 19 -16 37 -20 40 -14 10 -49 81 -49 99 0 10 -7
21 -15 25 -8 3 -15 13 -15 23 0 10 -9 24 -20 31 -11 7 -20 19 -20 27 0 8 -3
15 -7 15 -5 0 -21 20 -38 45 -16 24 -33 45 -37 45 -5 0 -8 5 -8 11 0 6 -11 25
-25 43 -14 18 -25 38 -25 44 0 7 -5 12 -11 12 -5 0 -7 5 -4 10 3 6 1 10 -5 10
-7 0 -10 6 -7 14 3 7 0 19 -6 25 -7 7 -7 12 -2 11 21 -4 30 1 16 9 -11 7 -11
13 0 32 7 13 12 32 10 42 -1 10 4 17 13 17 9 0 16 5 16 11 0 10 14 30 63 92
12 15 56 63 97 106 65 69 151 162 228 250 96 107 433 462 486 510 15 14 50 53
77 86 27 33 71 87 99 120 27 33 50 63 50 67 0 5 -33 8 -72 7 l-73 -1 -235
-242z m-1528 -1161 c471 -62 824 -402 909 -875 20 -107 17 -354 -5 -460 -21
-103 -57 -183 -90 -198 -13 -6 -53 -16 -88 -22 -186 -32 -211 -61 -227 -257
-6 -69 -16 -134 -25 -150 -42 -81 -180 -170 -343 -220 -81 -25 -102 -27 -263
-27 -159 -1 -181 1 -245 23 -88 29 -165 87 -210 154 -19 29 -48 97 -66 152
-38 121 -68 181 -106 217 -15 15 -80 51 -144 81 -138 65 -188 107 -231 195
l-33 67 -4 188 c-5 277 21 441 91 580 171 342 518 555 918 565 30 1 103 -5
162 -13z"/>
<path d="M2171 2848 c-90 -62 -94 -196 -7 -253 32 -22 115 -21 156 0 64 33 88
119 54 191 -36 76 -138 107 -203 62z"/>
<path d="M2732 2850 c-94 -58 -96 -206 -3 -255 42 -21 119 -19 157 4 17 10 39
36 48 56 60 125 -86 265 -202 195z"/>
<path d="M2282 2458 c-24 -24 -13 -56 38 -102 120 -107 277 -115 405 -18 61
46 77 82 50 112 -26 29 -47 25 -101 -20 -57 -47 -110 -64 -168 -55 -50 9 -70
19 -120 62 -41 34 -82 43 -104 21z"/>
</g>
</svg>
